<?xml version="1.0" standalone="no"?><!DOCTYPE svg PUBLIC "-//W3C//DTD SVG 1.1//EN" "http://www.w3.org/Graphics/SVG/1.1/DTD/svg11.dtd"><svg t="1767615100848" class="icon" viewBox="0 0 1024 1024" version="1.1" xmlns="http://www.w3.org/2000/svg" p-id="12917" xmlns:xlink="http://www.w3.org/1999/xlink" width="200" height="200"><path d="M884.865836 8.360631H139.134164C62.71045 8.372068 0.766296 70.327659 0.766296 146.751374v578.210249c0 76.423714 61.967029 138.367868 138.390743 138.356431H361.760264c21.296162 0 38.554975-17.258812 38.554975-38.554975s-17.258812-38.554975-38.554975-38.554975H139.134164c-33.83139 0-61.246482-27.415092-61.257919-61.246481V146.751374c0-33.842827 27.426529-61.269356 61.269357-61.269356h745.720234c33.842827 0 61.269356 27.426529 61.269356 61.269356v578.210249c0 33.83139-27.437966 61.257919-61.269356 61.257919H662.26261c-21.296162 0-38.554975 17.258812-38.554975 38.554974s17.258812 38.554975 38.554975 38.554975h222.603226c76.423714 0 138.379306-61.944154 138.390743-138.356431V146.751374c0-76.435152-61.955591-138.390743-138.390743-138.390743z" p-id="12918"></path><path d="M522.590895 954.987625l106.183443-152.847429c14.662556-21.113166 32.561855-24.338471 53.663584-9.664478 21.113166 14.662556 24.338471 32.561855 9.664477 53.663584l-106.183443 152.847429c-14.662556 21.113166-32.561855 24.338471-53.663584 9.664478-21.113166-14.662556-24.338471-32.561855-9.664477-53.663584zM503.342001 662.457043l-25.733816-97.66269h-127.410982l-23.320556 97.66269h-83.469061l132.191753-452.686414h66.907921l151.337712 452.686414h-90.502971z m-50.85002-174.749765l-41.219855-140.861189-37.720055 140.861189h78.93991z m191.848456 174.155028v-452.686414h77.761873v452.686414h-77.761873z" p-id="12919"></path></svg>