<?xml version="1.0" standalone="no"?><!DOCTYPE svg PUBLIC "-//W3C//DTD SVG 1.1//EN" "http://www.w3.org/Graphics/SVG/1.1/DTD/svg11.dtd"><svg t="1767615480495" class="icon" viewBox="0 0 1024 1024" version="1.1" xmlns="http://www.w3.org/2000/svg" p-id="16261" xmlns:xlink="http://www.w3.org/1999/xlink" width="200" height="200"><path d="M928 128H469.312a96 96 0 0 0-90.496-64H96a96 96 0 0 0-96 96v704a96 96 0 0 0 96 96h832a96 96 0 0 0 96-96V224a96 96 0 0 0-96-96z m32 720a48 48 0 0 1-48 48h-800A48 48 0 0 1 64 848v-544A48 48 0 0 1 112 256h800A48 48 0 0 1 960 304v544zM372 391.008a32 32 0 0 0-44.992 4.992l-128 160a32 32 0 0 0 0 39.968l128 160a31.872 31.872 0 0 0 44.96 4.992 32 32 0 0 0 4.992-44.992l-112-140 112-140a32 32 0 0 0-4.992-44.992z m324.992 4.992a32 32 0 0 0-49.984 40l112 140-112 140a32 32 0 0 0 49.984 40l128-160a32 32 0 0 0 0-39.968l-128-160z m-112.192-74.784a32 32 0 0 0-39.552 21.984l-128 448a32 32 0 1 0 61.536 17.568l128-448a32 32 0 0 0-21.984-39.552z" p-id="16262"></path></svg>