<?xml version="1.0" standalone="no"?><!DOCTYPE svg PUBLIC "-//W3C//DTD SVG 1.1//EN" "http://www.w3.org/Graphics/SVG/1.1/DTD/svg11.dtd"><svg t="1767151512637" class="icon" viewBox="0 0 1024 1024" version="1.1" xmlns="http://www.w3.org/2000/svg" p-id="2643" xmlns:xlink="http://www.w3.org/1999/xlink" width="200" height="200"><path d="M768 585.142857a36.571429 36.571429 0 0 1 36.571429 36.571429V731.428571h109.714285a36.571429 36.571429 0 1 1 0 73.142858h-109.787428L804.571429 914.285714a36.571429 36.571429 0 1 1-73.142858 0L731.355429 804.571429H621.714286a36.571429 36.571429 0 1 1 0-73.142858H731.428571V621.714286a36.571429 36.571429 0 0 1 36.571429-36.571429z" fill="#1476BB" p-id="2644"></path><path d="M768 73.142857L950.857143 256v292.571429a36.571429 36.571429 0 0 1-72.557714 6.582857L877.714286 548.571429V292.571429h-109.714286a36.571429 36.571429 0 0 1-36.571429-36.571429V146.285714H146.285714v731.428572h182.857143a36.571429 36.571429 0 0 1 6.582857 72.557714L329.142857 950.857143H146.285714a73.142857 73.142857 0 0 1-73.142857-73.142857V146.285714a73.142857 73.142857 0 0 1 73.142857-73.142857h621.714286z m-146.285714 512a36.571429 36.571429 0 0 1 0 73.142857h-292.571429a36.571429 36.571429 0 0 1 0-73.142857h292.571429z m73.142857-146.285714a36.571429 36.571429 0 0 1 0 73.142857h-365.714286a36.571429 36.571429 0 0 1 0-73.142857h365.714286z m-73.142857-146.285714a36.571429 36.571429 0 0 1 0 73.142857h-292.571429a36.571429 36.571429 0 0 1 0-73.142857h292.571429z" fill="#4C5D7C" p-id="2645"></path></svg>