<?xml version="1.0" standalone="no"?><!DOCTYPE svg PUBLIC "-//W3C//DTD SVG 1.1//EN" "http://www.w3.org/Graphics/SVG/1.1/DTD/svg11.dtd"><svg t="1767151398981" class="icon" viewBox="0 0 1024 1024" version="1.1" xmlns="http://www.w3.org/2000/svg" p-id="1624" xmlns:xlink="http://www.w3.org/1999/xlink" width="200" height="200"><path d="M768 832c25.6 0 51.2-12.8 57.6-32l192-358.4c12.8-19.2-6.4-32-32-32h-192V313.6c0-32-25.6-51.2-51.2-51.2H275.2l-38.4-89.6c0-12.8-12.8-19.2-19.2-19.2h-192c-6.4 0-12.8 0-19.2 6.4-6.4 6.4-6.4 12.8-6.4 19.2v595.2c0 32 25.6 57.6 51.2 57.6H768z m-25.6-428.8H326.4c-19.2 0-38.4 12.8-44.8 32l-172.8 345.6H51.2s-6.4 0-6.4-6.4V204.8H192l32 89.6c12.8 6.4 19.2 12.8 32 12.8h486.4s6.4 0 6.4 6.4l-6.4 89.6" fill="#666666" p-id="1625"></path></svg>