<?xml version="1.0" standalone="no"?><!DOCTYPE svg PUBLIC "-//W3C//DTD SVG 1.1//EN" "http://www.w3.org/Graphics/SVG/1.1/DTD/svg11.dtd"><svg t="1767581895940" class="icon" viewBox="0 0 1024 1024" version="1.1" xmlns="http://www.w3.org/2000/svg" p-id="10937" xmlns:xlink="http://www.w3.org/1999/xlink" width="200" height="200"><path d="M569.46 383.14h297.99v50H569.46zM569.46 486.17h234.46v50H569.46zM569.46 589.19h151.99v50H569.46z" p-id="10938"></path><path d="M65.43 168.74v656.35h897.4V168.74z m837.4 596.35h-777.4V228.74h777.4z" p-id="10939"></path><path d="M219.06 623.9A116.81 116.81 0 0 1 325 507.75a90.35 90.35 0 0 0 21.47 0A116.8 116.8 0 0 1 452.35 623.9v25h50v-25a166.85 166.85 0 0 0-94.74-150.32 91.78 91.78 0 1 0-143.8 0 166.84 166.84 0 0 0-94.75 150.32v25h50z m74.87-207.29a41.78 41.78 0 1 1 50.43 40.87q-4.31-0.23-8.65-0.22c-2.91 0-5.79 0.07-8.66 0.22a41.85 41.85 0 0 1-33.12-40.87z" p-id="10940"></path></svg>